<?xml version="1.0" standalone="no"?>
<!DOCTYPE svg PUBLIC "-//W3C//DTD SVG 20010904//EN"
 "http://www.w3.org/TR/2001/REC-SVG-20010904/DTD/svg10.dtd">
<svg version="1.0" xmlns="http://www.w3.org/2000/svg"
 width="501.000000pt" height="150.000000pt" viewBox="0 0 501.000000 150.000000"
 preserveAspectRatio="xMidYMid meet">

<g transform="translate(0.000000,150.000000) scale(0.100000,-0.100000)"
fill="#000000" stroke="none">
<path d="M467 1179 c-152 -36 -288 -184 -357 -389 -30 -92 -38 -240 -16 -308
33 -99 133 -183 237 -200 195 -30 342 78 299 221 -6 22 -25 53 -40 69 -62 62
-170 18 -170 -69 0 -48 24 -85 53 -81 23 3 28 34 13 69 -7 16 16 49 34 49 22
0 50 -46 50 -81 0 -74 -80 -126 -183 -117 -97 8 -155 76 -144 167 16 127 64
204 142 228 21 7 41 11 43 9 2 -3 6 -24 9 -48 8 -60 17 -68 78 -68 65 0 85 7
85 29 0 27 -21 41 -62 41 -34 0 -38 3 -38 25 0 25 1 25 85 25 l85 0 0 -34 c0
-26 7 -41 31 -60 30 -26 35 -27 143 -24 l111 3 3 27 c4 33 -8 37 -133 41 -132
3 -108 21 37 28 68 3 132 9 143 14 69 29 115 94 115 164 0 37 -5 43 -92 119
-127 108 -145 116 -199 89 -22 -12 -29 -11 -60 10 -75 52 -206 75 -302 52z"/>
<path d="M3237 914 c-4 -4 -7 -20 -7 -35 0 -23 6 -30 27 -35 35 -9 58 7 58 42
0 26 -4 29 -35 32 -20 2 -39 0 -43 -4z"/>
<path d="M3544 906 c-16 -41 16 -73 60 -62 24 6 27 11 24 39 -3 29 -6 32 -41
35 -26 2 -39 -1 -43 -12z"/>
<path d="M1633 850 l7 -61 -22 16 c-50 34 -117 5 -138 -61 -16 -48 -8 -129 17
-162 24 -33 82 -41 118 -18 20 13 25 13 35 1 7 -8 28 -15 46 -15 l34 0 0 180
0 180 -51 0 -52 0 6 -60z m-12 -110 c14 -8 19 -21 19 -53 0 -53 -11 -70 -41
-65 -34 4 -49 66 -25 102 19 29 20 30 47 16z"/>
<path d="M2920 730 l0 -180 33 0 c18 0 38 5 44 11 8 8 17 8 31 0 63 -34 128 3
142 81 23 123 -58 218 -138 162 l-22 -15 0 60 0 61 -45 0 -45 0 0 -180z m148
8 c18 -18 15 -93 -4 -109 -24 -19 -48 1 -52 44 -5 60 25 96 56 65z"/>
<path d="M3380 730 l0 -180 45 0 45 0 0 180 0 180 -45 0 -45 0 0 -180z"/>
<path d="M3850 849 l0 -60 -22 15 c-58 41 -131 -3 -143 -86 -8 -53 8 -121 36
-149 24 -24 85 -25 112 -2 18 17 19 17 28 0 7 -11 22 -17 44 -17 l35 0 0 180
0 180 -45 0 -45 0 0 -61z m-16 -112 c13 -10 17 -24 14 -62 -3 -44 -6 -50 -27
-53 -13 -2 -28 2 -32 10 -13 20 -11 92 3 106 15 15 20 15 42 -1z"/>
<path d="M4453 850 l7 -61 -22 16 c-50 34 -117 5 -138 -61 -16 -48 -8 -129 17
-162 24 -33 82 -41 118 -18 20 13 25 13 35 1 7 -8 28 -15 46 -15 l34 0 0 180
0 180 -51 0 -52 0 6 -60z m-12 -110 c14 -8 19 -21 19 -53 0 -53 -11 -70 -41
-65 -34 4 -49 66 -25 102 19 29 20 30 47 16z"/>
<path d="M1201 853 c-6 -21 -31 -98 -55 -170 l-45 -133 53 0 c51 0 54 1 60 30
5 29 7 30 65 30 57 0 59 -1 65 -30 5 -29 8 -30 57 -30 37 0 50 4 47 13 -3 6
-29 83 -57 170 l-53 157 -63 0 -64 0 -10 -37z m103 -131 c7 -32 7 -32 -29 -32
-25 0 -35 4 -32 13 3 6 11 39 19 71 l13 59 11 -39 c6 -22 15 -54 18 -72z"/>
<path d="M2434 845 c-3 -14 -17 -34 -30 -44 -26 -21 -32 -51 -10 -51 10 0 15
-20 17 -79 5 -105 20 -123 98 -119 55 3 56 4 59 36 3 30 1 32 -27 32 -35 0
-45 21 -39 86 3 36 6 39 36 42 29 3 32 6 32 38 0 32 -2 34 -35 34 -31 0 -35 3
-35 25 0 21 -5 25 -30 25 -23 0 -31 -5 -36 -25z"/>
<path d="M1840 812 c-29 -9 -36 -30 -18 -54 11 -14 20 -16 51 -9 30 7 41 6 54
-7 15 -16 13 -17 -38 -25 -74 -10 -103 -33 -107 -85 -4 -55 22 -82 81 -82 23
0 53 7 65 16 20 14 23 14 28 0 4 -10 19 -16 41 -16 l35 0 -4 110 c-4 136 -15
152 -105 156 -32 2 -69 0 -83 -4z m100 -153 c0 -23 -22 -49 -41 -49 -28 0 -37
30 -14 46 22 17 55 18 55 3z"/>
<path d="M2090 625 l0 -195 45 0 45 0 0 70 c0 67 1 70 19 60 62 -33 127 5 141
82 23 124 -58 218 -139 162 -22 -16 -24 -16 -33 0 -6 10 -22 16 -43 16 l-35 0
0 -195z m148 113 c13 -13 16 -75 6 -102 -8 -22 -41 -20 -54 3 -30 58 9 138 48
99z"/>
<path d="M2663 809 c-30 -9 -31 -10 -20 -39 13 -34 11 -33 55 -21 38 11 62 5
62 -15 0 -9 -11 -14 -30 -14 -35 0 -101 -25 -112 -43 -15 -24 -9 -93 10 -110
25 -23 99 -22 125 0 18 17 19 17 28 0 7 -11 22 -17 44 -17 l35 0 0 89 c0 106
-12 147 -51 166 -31 17 -97 18 -146 4z m97 -163 c0 -25 -30 -43 -50 -31 -24
15 -1 55 32 55 12 0 18 -8 18 -24z"/>
<path d="M3230 686 l0 -136 45 0 46 0 -3 133 -3 132 -42 3 -43 3 0 -135z"/>
<path d="M3540 685 l0 -135 45 0 45 0 0 135 0 135 -45 0 -45 0 0 -135z"/>
<path d="M4050 812 c-29 -9 -36 -30 -18 -54 11 -14 20 -16 51 -9 30 7 41 6 54
-7 15 -16 13 -17 -38 -25 -74 -10 -103 -33 -107 -85 -4 -55 22 -82 81 -82 23
0 53 7 65 16 20 14 23 14 28 0 4 -10 19 -16 41 -16 l35 0 -4 110 c-4 136 -15
152 -105 156 -32 2 -69 0 -83 -4z m100 -153 c0 -23 -22 -49 -41 -49 -28 0 -37
30 -14 46 22 17 55 18 55 3z"/>
<path d="M4671 807 c-84 -43 -94 -191 -17 -238 22 -13 50 -19 93 -19 82 0 93
5 93 44 l0 33 -48 -10 c-56 -12 -76 -7 -92 22 -10 20 -8 21 76 21 l87 0 -7 45
c-3 25 -11 55 -17 66 -22 42 -117 62 -168 36z m87 -59 c20 -20 14 -28 -23 -28
-19 0 -35 4 -35 8 0 12 22 32 35 32 6 0 16 -5 23 -12z"/>
</g>
</svg>
